<svg width="151" height="151" viewBox="0 0 151 151" fill="none" xmlns="http://www.w3.org/2000/svg">
<g clip-path="url(#clip0_109_12255)">
<path d="M123.26 17.51L114.43 29.74C127.11 40.76 135.15 56.99 135.15 75.08C135.15 108.21 108.2 135.16 75.07 135.16C41.94 135.16 15 108.21 15 75.08C15 56.69 23.31 40.21 36.37 29.18L50.15 48.27C42.97 54.96 38.47 64.49 38.47 75.08C38.47 95.3 54.86 111.69 75.08 111.69C95.3 111.69 111.69 95.3 111.69 75.08C111.69 64.8 107.45 55.52 100.63 48.87L91.68 61.27C94.8 65.02 96.69 69.84 96.69 75.08C96.69 87 86.99 96.69 75.08 96.69C63.17 96.69 53.47 86.99 53.47 75.08C53.47 69.52 55.58 64.44 59.05 60.6L75.61 83.55V0.01C75.43 0.01 75.26 0 75.08 0C57.04 0 40.5 6.36 27.55 16.96C10.74 30.73 0 51.65 0 75.08C0 116.55 33.61 150.16 75.08 150.16C116.55 150.16 150.16 116.55 150.16 75.08C150.16 51.96 139.7 31.28 123.26 17.51Z" fill="white"/>
</g>
<defs>
<clipPath id="clip0_109_12255">
<rect width="150.16" height="150.16" fill="white"/>
</clipPath>
</defs>
</svg>
