<svg width="350" height="114" viewBox="0 0 350 114" fill="none" xmlns="http://www.w3.org/2000/svg">
<g clip-path="url(#clip0_1_1966)">
<path d="M31.0667 60.3398C28.2125 58.5515 24.983 57.6546 21.3783 57.6546C19.5759 57.6546 17.8645 57.9554 16.2441 58.5627C14.6237 59.1699 13.1966 59.9387 11.9628 60.8691C10.8484 61.7103 9.95572 62.5515 9.26207 63.3928V63.0251C9.26207 61.7159 8.82427 60.6184 7.94867 59.7326C7.07307 58.8524 5.96436 58.4067 4.62823 58.4067C3.29209 58.4067 2.18338 58.8468 1.30778 59.7326C0.432183 60.6128 -0.00561523 61.7103 -0.00561523 63.0251V109.387C-0.00561523 110.747 0.432183 111.855 1.30778 112.713C2.18338 113.571 3.2864 114 4.62823 114C5.97005 114 7.07307 113.56 7.94867 112.674C8.82427 111.794 9.26207 110.696 9.26207 109.382V94.546C9.80789 95.0808 10.4333 95.6156 11.1554 96.1504C12.52 97.1588 14.1006 97.9944 15.903 98.6462C17.7053 99.298 19.6328 99.6267 21.691 99.6267C25.1877 99.6267 28.3433 98.7298 31.1463 96.9415C33.9494 95.1532 36.1895 92.6797 37.8611 89.532C39.5327 86.3788 40.3685 82.7354 40.3685 78.6017C40.3685 74.468 39.5327 70.8356 37.8611 67.7103C36.1895 64.585 33.9266 62.1281 31.0667 60.3343V60.3398ZM30.066 85.0696C29.1108 87.0139 27.8031 88.5348 26.1315 89.6434C24.4599 90.7521 22.4927 91.3092 20.2241 91.3092C17.9555 91.3092 15.9769 90.7521 14.2825 89.6434C12.5825 88.5348 11.2577 87.0083 10.3082 85.0696C9.35304 83.1309 8.88113 80.9749 8.88113 78.6017C8.88113 76.2284 9.35872 74.0278 10.3082 72.1337C11.2577 70.2451 12.5825 68.7409 14.2825 67.6323C15.9826 66.5237 17.9612 65.9666 20.2241 65.9666C22.487 65.9666 24.4542 66.5237 26.1315 67.6323C27.8031 68.7409 29.1165 70.2395 30.066 72.1337C31.0155 74.0223 31.4931 76.1783 31.4931 78.6017C31.4931 81.0251 31.0155 83.1253 30.066 85.0696Z" fill="white"/>
<path d="M77.7292 63.5933C75.9268 61.7549 73.8572 60.3008 71.5147 59.2423C69.1722 58.1838 66.6876 57.6546 64.0665 57.6546C60.6721 57.6546 57.454 58.5125 54.4178 60.2284C51.3817 61.9443 48.9255 64.4011 47.0435 67.6044C45.1672 70.8078 44.2234 74.6741 44.2234 79.2145C44.2234 83.0975 45.0819 86.5794 46.8104 89.6546C48.5331 92.7298 51.0064 95.1643 54.2188 96.9526C57.4369 98.7409 61.2293 99.6379 65.6073 99.6379C68.1772 99.6379 70.6732 99.22 73.0953 98.39C75.5118 97.5599 77.3937 96.5905 78.7299 95.4763C80.1684 94.3677 80.8904 93.1309 80.8904 91.7716C80.8904 90.7632 80.5152 89.883 79.7704 89.1253C79.0255 88.3677 78.0817 87.9888 76.9502 87.9888C76.1258 87.9888 75.2502 88.2173 74.3235 88.6685C73.7549 88.9694 73.1295 89.337 72.4301 89.766C71.7365 90.195 70.8211 90.5627 69.6896 90.8635C68.5582 91.1643 67.0401 91.3148 65.1354 91.3148C63.0772 91.3148 61.1326 90.8245 59.3075 89.8384C57.4824 88.8579 55.9871 87.4206 54.8272 85.5265C54.1506 84.4234 53.6787 83.1699 53.3944 81.7827H78.872C80.1058 81.7827 81.1861 81.4039 82.1129 80.6462C83.0396 79.8886 83.5286 78.9081 83.5798 77.6992C83.5798 74.9749 83.051 72.4067 81.9991 69.9833C80.9416 67.5655 79.5145 65.4317 77.7121 63.5933H77.7292ZM73.7151 74.2173H53.4911C53.6162 73.5933 53.7697 73.0084 53.9573 72.4791C54.5202 70.8635 55.2934 69.5822 56.2714 68.6239C57.2493 67.6657 58.4035 66.9861 59.7453 66.5794C61.0815 66.1783 62.5256 65.9721 64.0665 65.9721C65.6073 65.9721 67.1652 66.312 68.5809 66.9916C69.9966 67.6713 71.1793 68.5905 72.1345 69.7549C73.084 70.9136 73.6127 72.2284 73.7151 73.688V74.2173Z" fill="white"/>
<path d="M114.743 58.9415C113.685 58.0836 112.389 57.6546 110.843 57.6546C109.558 57.6546 108.267 57.805 106.982 58.1114C105.697 58.4122 104.486 58.8802 103.355 59.5097C102.223 60.1393 101.205 60.9248 100.307 61.8551C99.6703 62.5181 99.1187 63.2535 98.6468 64.0501V63.0251C98.6468 61.7159 98.209 60.6184 97.3334 59.7326C96.4578 58.8524 95.3491 58.4067 94.013 58.4067C92.6769 58.4067 91.5681 58.8468 90.6925 59.7326C89.8169 60.6128 89.3792 61.7103 89.3792 63.0251V94.2618C89.3792 95.571 89.8169 96.6685 90.6925 97.5543C91.5681 98.4345 92.6712 98.8802 94.013 98.8802C95.3548 98.8802 96.4578 98.4401 97.3334 97.5543C98.209 96.6741 98.6468 95.5766 98.6468 94.2618V76.3343C98.6468 74.5181 98.8913 72.9415 99.3803 71.6044C99.8693 70.2674 100.512 69.1476 101.308 68.2395C102.104 67.3315 102.979 66.6629 103.935 66.234C104.884 65.805 105.828 65.5933 106.755 65.5933C107.784 65.5933 108.699 65.7716 109.495 66.1226C110.291 66.4735 111.178 66.6518 112.156 66.6518C113.185 66.6518 114.135 66.2841 115.01 65.5543C115.886 64.8245 116.324 63.6267 116.324 61.961C116.324 60.8022 115.795 59.7939 114.743 58.9359V58.9415Z" fill="white"/>
<path d="M127.979 59.7326C127.104 58.8524 125.995 58.4067 124.659 58.4067C123.323 58.4067 122.214 58.8468 121.338 59.7326C120.463 60.6128 120.025 61.7103 120.025 63.0251V94.2618C120.025 95.571 120.463 96.6685 121.338 97.5543C122.214 98.4345 123.317 98.8802 124.659 98.8802C125.563 98.8802 126.364 98.6741 127.058 98.2674C127.388 98.0724 127.695 97.844 127.979 97.5599C128.855 96.6797 129.293 95.5822 129.293 94.2674V63.0306C129.293 61.9109 128.969 60.9526 128.332 60.1448C128.224 60.0056 128.104 59.8719 127.979 59.7437V59.7326Z" fill="white"/>
<path d="M161.479 78.5293C161.115 78.2841 160.74 78.0501 160.354 77.8329C160.098 77.688 159.836 77.5432 159.575 77.4095C158.779 77.0028 157.949 76.6462 157.079 76.3398C155.481 75.7827 153.912 75.3092 152.371 74.9025C150.876 74.5014 149.477 74.0836 148.163 73.6546C146.85 73.2256 145.81 72.6741 145.036 71.9889C144.263 71.3036 143.876 70.39 143.876 69.2256C143.876 67.9666 144.212 67.0474 144.883 66.4624C145.548 65.883 146.338 65.5042 147.237 65.3259C148.135 65.1476 148.971 65.0585 149.744 65.0585C151.649 65.0585 153.332 65.3872 154.799 66.0446C156.266 66.702 157.437 67.5822 158.312 68.6908C158.983 69.2981 159.831 69.6379 160.86 69.7103C160.86 69.7103 160.86 69.7103 160.865 69.7103C160.985 69.7214 161.098 69.7214 161.212 69.7214C161.314 69.7214 161.417 69.7159 161.513 69.7103C162.275 69.6546 162.958 69.3928 163.56 68.9192C164.641 68.0613 165.13 67.1031 165.027 66.0446C164.925 65.0195 164.606 64.1393 164.072 63.3983C164.055 63.3705 164.038 63.3426 164.021 63.3203C163.145 62.2228 162.099 61.3036 160.888 60.546C160.598 60.3677 160.314 60.1894 160.007 60.0279C159.808 59.922 159.603 59.8329 159.398 59.7382C157.983 59.0585 156.516 58.546 154.986 58.2117C153.235 57.8329 151.564 57.6435 149.972 57.6435C147.447 57.6435 145.042 58.1226 142.756 59.0808C142.182 59.3203 141.636 59.5877 141.119 59.8774C140.857 60.0223 140.607 60.1727 140.357 60.3287C139.123 61.1142 138.06 62.0613 137.156 63.1643C135.712 64.9304 134.995 67.0696 134.995 69.5933C134.995 71.8106 135.433 73.6546 136.309 75.1142C137.184 76.5794 138.316 77.7493 139.703 78.6295C141.09 79.5097 142.626 80.2284 144.297 80.7855C145.969 81.3426 147.601 81.844 149.198 82.2953C150.739 82.702 152.143 83.1253 153.406 83.5822C154.668 84.0334 155.68 84.5905 156.453 85.2479C157.226 85.9053 157.613 86.7855 157.613 87.8942C157.613 88.0557 157.613 88.2173 157.596 88.3677C157.522 89.4429 157.181 90.2507 156.573 90.8022C155.879 91.4318 155.066 91.8384 154.139 92.0111C153.212 92.1894 152.365 92.3008 151.592 92.351C149.124 92.351 147.06 91.9499 145.417 91.1421C144.763 90.8189 144.121 90.4345 143.49 90.0111C142.535 89.3705 141.608 88.624 140.704 87.7382C139.828 86.8802 138.93 86.4123 138.003 86.3398C137.821 86.3231 137.639 86.3287 137.457 86.3398C137.372 86.3398 137.287 86.351 137.201 86.3565C137.071 86.3677 136.94 86.39 136.809 86.4178C136.73 86.4345 136.65 86.4457 136.57 86.468C136.428 86.507 136.292 86.5515 136.155 86.6072C136.093 86.6295 136.025 86.6518 135.962 86.6797C135.763 86.7688 135.564 86.8635 135.371 86.9861C134.086 87.7939 133.415 88.7521 133.364 89.8607C133.312 90.9694 133.546 91.8774 134.057 92.585C136.064 95.2089 138.583 97.0362 141.619 98.0668C144.655 99.0975 147.692 99.6156 150.728 99.6156C153.144 99.6156 155.515 99.1476 157.829 98.2173C160.143 97.2869 162.076 95.9109 163.617 94.0947C163.725 93.9666 163.816 93.8384 163.919 93.7103C165.255 91.9721 165.931 89.9109 165.931 87.5153C165.931 85.298 165.516 83.4708 164.697 82.0334C163.873 80.5961 162.793 79.4262 161.457 78.5181L161.479 78.5293Z" fill="white"/>
<path d="M203.701 89.6824C202.979 88.8524 201.95 88.4345 200.614 88.4345C199.483 88.4345 198.635 88.663 198.067 89.1142C197.498 89.5655 196.856 89.9944 196.139 90.4011C195.52 90.7019 194.752 90.9304 193.825 91.0808C192.899 91.2312 191.79 91.3092 190.505 91.3092C188.191 91.3092 186.144 90.7521 184.37 89.6435C182.596 88.5348 181.203 87.0362 180.202 85.1421C179.202 83.2535 178.696 81.0975 178.696 78.6741C178.696 76.2061 179.185 74.0223 180.163 72.1337C181.141 70.2451 182.545 68.7409 184.37 67.6323C186.195 66.5237 188.424 65.9666 191.045 65.9666C191.557 65.9666 192.341 66.0557 193.399 66.2284C194.451 66.4067 195.241 66.6462 195.753 66.9471C196.321 67.2479 196.805 67.5766 197.22 67.9276C197.629 68.2785 198.107 68.5682 198.647 68.7967C199.187 69.0251 199.869 69.1365 200.694 69.1365C201.876 69.1365 202.78 68.6964 203.394 67.8106C204.014 66.9304 204.321 65.9833 204.321 64.9749C204.321 64.9749 204.321 64.9359 204.321 64.9192C204.304 63.4317 203.701 62.1504 202.507 61.0808C202.053 60.6741 201.529 60.3008 200.938 59.961C199.955 59.3983 198.778 58.9248 197.413 58.546C195.224 57.9387 192.665 57.6379 189.732 57.6379C186.263 57.6379 183.142 58.3231 180.362 59.6936C179.964 59.8886 179.577 60.1003 179.19 60.3231C177.678 61.2033 176.336 62.2563 175.154 63.4707C174.761 63.8774 174.38 64.3008 174.022 64.7409C173.277 65.6602 172.601 66.6518 172.009 67.7326C170.287 70.8858 169.422 74.5292 169.422 78.6629C169.422 82.7966 170.235 86.1504 171.856 89.3259C173.476 92.5014 175.779 95.0139 178.764 96.8524C181.749 98.6908 185.274 99.6156 189.339 99.6156C192.068 99.6156 194.599 99.298 196.941 98.6685C199.284 98.039 201.171 97.2089 202.615 96.1727C204.054 95.1421 204.776 93.9944 204.776 92.7298C204.776 92.5794 204.776 92.429 204.759 92.2841C204.679 91.2646 204.327 90.3955 203.696 89.6657L203.701 89.6824Z" fill="white"/>
<path d="M303.77 66.8412C303.372 66.1727 302.94 65.5376 302.479 64.9304C301.08 63.0919 299.42 61.5543 297.476 60.3343C297.117 60.1114 296.753 59.8997 296.39 59.7047C293.808 58.3343 290.943 57.649 287.793 57.649C285.99 57.649 284.279 57.9499 282.659 58.5571C281.647 58.9359 280.714 59.3872 279.856 59.8942C279.338 60.2006 278.838 60.5181 278.377 60.8691C277.809 61.2981 277.297 61.7326 276.836 62.1616C276.399 62.5738 276.012 62.9805 275.677 63.3928V63.0251C275.677 61.7159 275.239 60.6184 274.363 59.7326C274.255 59.6212 274.141 59.5209 274.022 59.4206C273.903 59.3259 273.783 59.2368 273.664 59.1532C272.919 58.6574 272.049 58.4067 271.043 58.4067C270.036 58.4067 269.167 58.6574 268.422 59.1532C268.297 59.2368 268.177 59.3259 268.063 59.4206C267.944 59.5153 267.836 59.6212 267.722 59.7326C266.847 60.6128 266.409 61.7103 266.409 63.0251V109.387C266.409 110.747 266.847 111.855 267.722 112.713C268.598 113.571 269.701 114 271.043 114C272.385 114 273.488 113.56 274.363 112.674C275.239 111.794 275.677 110.696 275.677 109.382V94.546C276.222 95.0808 276.848 95.6156 277.57 96.1504C278.935 97.1588 280.515 97.9944 282.318 98.6462C284.12 99.2981 286.047 99.6267 288.106 99.6267C291.602 99.6267 294.758 98.7298 297.561 96.9415C300.364 95.1532 302.604 92.6797 304.276 89.532C305.947 86.3788 306.783 82.7354 306.783 78.6017C306.783 74.468 305.947 70.8357 304.276 67.7103C304.116 67.4095 303.946 67.1254 303.775 66.8412H303.77ZM297.902 78.6017C297.902 80.9749 297.424 83.1254 296.475 85.0696C295.52 87.0139 294.212 88.5348 292.54 89.6435C290.869 90.7521 288.902 91.3092 286.633 91.3092C284.364 91.3092 282.386 90.7521 280.691 89.6435C278.991 88.5348 277.667 87.0084 276.717 85.0696C275.762 83.1309 275.29 80.9749 275.29 78.6017C275.29 76.1838 275.768 74.0279 276.717 72.1337C277.667 70.2451 278.991 68.741 280.691 67.6323C282.391 66.5237 284.37 65.9666 286.633 65.9666C288.896 65.9666 290.863 66.5237 292.54 67.6323C294.212 68.741 295.525 70.2396 296.475 72.1337C297.424 74.0223 297.902 76.1783 297.902 78.6017Z" fill="white"/>
<path d="M348.419 69.9833C347.362 67.5655 345.935 65.4317 344.132 63.5933C343.456 62.9025 342.745 62.2674 341.995 61.688C341.244 61.1086 340.454 60.585 339.629 60.1114C339.078 59.7994 338.509 59.5097 337.924 59.2423C335.581 58.1838 333.096 57.6546 330.475 57.6546C327.854 57.6546 325.483 58.1393 323.135 59.1031C322.743 59.2646 322.356 59.4373 321.97 59.6267C321.583 59.8161 321.202 60.0167 320.821 60.2284C318.695 61.4317 316.858 63.0028 315.3 64.9359C314.789 65.571 314.305 66.2451 313.856 66.9582C313.72 67.1699 313.583 67.3816 313.452 67.5989C311.576 70.8022 310.632 74.6685 310.632 79.2089C310.632 83.0919 311.491 86.5738 313.219 89.649C313.39 89.9498 313.566 90.2395 313.754 90.5237C315.442 93.1866 317.728 95.3315 320.633 96.9471C323.852 98.7354 327.644 99.6323 332.022 99.6323C334.592 99.6323 337.088 99.2145 339.51 98.3844C341.926 97.5543 343.808 96.5849 345.144 95.4707C346.583 94.3621 347.305 93.1253 347.305 91.766C347.305 90.7577 346.93 89.8774 346.185 89.1198C345.44 88.3621 344.496 87.9833 343.365 87.9833C343.081 87.9833 342.785 88.0223 342.484 88.078C342.205 88.1281 341.921 88.2005 341.625 88.3008C341.335 88.3955 341.039 88.5181 340.738 88.6685C340.169 88.9694 339.544 89.337 338.845 89.766C338.151 90.195 337.236 90.5627 336.104 90.8635C334.973 91.1643 333.455 91.3148 331.55 91.3148C329.492 91.3148 327.547 90.8245 325.722 89.8384C323.897 88.8579 322.402 87.4206 321.242 85.5265C320.565 84.4234 320.093 83.1699 319.809 81.7827H345.287C346.52 81.7827 347.601 81.4039 348.527 80.6462C349.454 79.8886 349.943 78.9081 349.994 77.6992C349.994 74.9749 349.466 72.4067 348.414 69.9833H348.419ZM340.124 74.2173H319.9C320.025 73.5933 320.179 73.0084 320.366 72.4791C320.929 70.8635 321.702 69.5822 322.68 68.6239C323.658 67.6657 324.812 66.9861 326.154 66.5794C327.49 66.1783 328.935 65.9721 330.475 65.9721C332.016 65.9721 333.574 66.312 334.99 66.9916C336.406 67.6713 337.588 68.5905 338.543 69.7549C339.493 70.9136 340.022 72.2284 340.124 73.688V74.2173Z" fill="white"/>
<mask id="mask0_1_1966" style="mask-type:alpha" maskUnits="userSpaceOnUse" x="0" y="0" width="310" height="100">
<path d="M249.056 36.9248L247.413 41.6824C252.962 43.5042 257.977 46.4568 262.179 50.2674C262.656 50.702 263.128 51.1476 263.589 51.61C264.464 51.0585 265.403 50.6072 266.386 50.2674C267.154 50 267.956 49.805 268.774 49.6769C263.509 43.883 256.732 39.4429 249.056 36.9304V36.9248Z" fill="#0C8DDD"/>
<path d="M308.887 47.5989C308.801 47.415 308.722 47.2312 308.637 47.0473C308.637 47.0362 308.625 47.0251 308.619 47.0139C308.364 46.4568 308.096 45.9053 307.829 45.3538C307.761 45.2145 307.698 45.0696 307.624 44.9304C307.568 44.8134 307.511 44.6964 307.454 44.5849C307.346 44.3677 307.226 44.1616 307.118 43.9443C306.811 43.337 306.499 42.7354 306.175 42.1393C306.123 42.0501 306.072 41.9554 306.021 41.8663C305.993 41.8162 305.964 41.766 305.936 41.7103C305.578 41.0641 305.214 40.4178 304.838 39.7827C304.736 39.61 304.634 39.4373 304.531 39.2646C304.276 38.8412 304.008 38.4234 303.747 38.0056C303.679 37.8941 303.61 37.7772 303.536 37.6657C303.44 37.5097 303.343 37.3538 303.246 37.1978C303.201 37.1253 303.15 37.0473 303.104 36.9749C302.826 36.546 302.536 36.1337 302.251 35.7103C302.024 35.3705 301.802 35.0306 301.569 34.6964C301.49 34.5794 301.404 34.468 301.319 34.351C300.876 33.727 300.426 33.1086 299.966 32.4958C299.846 32.3343 299.721 32.1727 299.602 32.0111C299.085 31.3315 298.556 30.6574 298.016 29.9944C297.993 29.9666 297.97 29.9387 297.953 29.9109C297.595 29.4707 297.22 29.0418 296.856 28.6128C296.628 28.351 296.412 28.078 296.185 27.8217C296.071 27.6936 295.957 27.5655 295.844 27.4373C295.349 26.8802 294.849 26.3343 294.343 25.7939C294.206 25.649 294.07 25.5042 293.933 25.3593C293.535 24.9359 293.12 24.5292 292.711 24.117C292.535 23.9387 292.358 23.7549 292.182 23.5766C291.506 22.9081 290.812 22.2451 290.113 21.5989C290.101 21.5877 290.095 21.5822 290.084 21.571C289.942 21.4373 289.794 21.3092 289.646 21.1755C289.578 21.1142 289.516 21.0585 289.447 21.0028C289.027 20.624 288.6 20.2451 288.168 19.8719C288.111 19.8273 288.06 19.7772 288.009 19.727C287.855 19.5989 287.707 19.4652 287.554 19.337C287.52 19.3092 287.48 19.2758 287.446 19.2479C286.826 18.7298 286.206 18.2173 285.57 17.7159C285.456 17.6267 285.342 17.5376 285.229 17.4485C284.671 17.0139 284.114 16.585 283.546 16.1616C283.466 16.1058 283.392 16.0446 283.318 15.9889C283.221 15.9164 283.125 15.8496 283.028 15.7772C282.352 15.2813 281.664 14.7967 280.97 14.3231C280.822 14.2228 280.68 14.1226 280.532 14.0223C280.435 13.961 280.339 13.8997 280.248 13.8329C279.725 13.4819 279.19 13.1365 278.656 12.7967C278.519 12.7075 278.383 12.6184 278.246 12.5292C278.19 12.4958 278.133 12.4568 278.07 12.4234C277.365 11.9833 276.654 11.5599 275.938 11.1421C275.739 11.0251 275.54 10.9136 275.341 10.8022C274.699 10.4345 274.056 10.078 273.402 9.73259C273.249 9.64902 273.095 9.56545 272.936 9.48189C272.555 9.28133 272.168 9.09192 271.788 8.9025C271.355 8.68523 270.929 8.45682 270.497 8.25069C270.383 8.19498 270.264 8.13927 270.144 8.08356C269.445 7.7493 268.734 7.42061 268.024 7.10306C267.808 7.00835 267.591 6.91364 267.375 6.81894C267.012 6.66295 266.642 6.51253 266.272 6.35654C265.931 6.21727 265.596 6.06685 265.255 5.93314C265.118 5.87743 264.982 5.82172 264.845 5.76601C264.521 5.63788 264.191 5.52089 263.867 5.39832C263.589 5.29247 263.304 5.18662 263.026 5.08078C262.77 4.98607 262.52 4.88579 262.264 4.79665C262.105 4.74094 261.94 4.68523 261.775 4.62952C261.616 4.57381 261.462 4.52367 261.303 4.47353C261.007 4.37325 260.717 4.27855 260.422 4.17827L258.79 8.89693C259.523 9.13649 260.251 9.39275 260.973 9.65459C261.047 9.68245 261.121 9.7103 261.195 9.73816C261.195 9.73816 261.201 9.73816 261.206 9.73816C261.963 10.0167 262.719 10.3064 263.464 10.6072C263.765 10.7298 264.061 10.8524 264.356 10.9805C264.908 11.2089 265.459 11.4485 266.005 11.688C266.21 11.7772 266.415 11.8663 266.614 11.9554C267.415 12.3231 268.211 12.7019 269.002 13.0975C269.155 13.1755 269.309 13.259 269.468 13.337H269.473C270.11 13.6657 270.741 13.9944 271.367 14.3343C271.594 14.4568 271.822 14.585 272.049 14.7075C272.197 14.7911 272.339 14.8746 272.481 14.9582C273.271 15.4039 274.056 15.8663 274.829 16.3398C274.846 16.351 274.863 16.3621 274.881 16.3733C275.642 16.8412 276.399 17.3259 277.149 17.8217C277.536 18.078 277.917 18.3454 278.298 18.6072C279.077 19.1476 279.844 19.6992 280.606 20.2674C280.606 20.2674 280.612 20.2674 280.617 20.273C281.379 20.8412 282.13 21.4262 282.869 22.0279C283.148 22.2507 283.426 22.468 283.699 22.6964C283.892 22.8524 284.08 23.0195 284.268 23.1811C284.779 23.6156 285.285 24.0613 285.791 24.507C286.07 24.7521 286.343 25.0084 286.616 25.259C287.19 25.7883 287.764 26.3175 288.322 26.8691L288.333 26.8802C295.315 33.7214 300.768 41.6602 304.531 50.2953C304.77 50.8468 305.003 51.3983 305.231 51.9499C306.539 51.298 307.892 50.7409 309.285 50.2953C309.512 50.2228 309.74 50.156 309.967 50.0891C309.66 49.3315 309.33 48.585 309 47.8384C308.972 47.7716 308.944 47.6992 308.909 47.6323L308.887 47.5989Z" fill="#0C8DDD"/>
<path d="M43.8026 10.585H40.8063C39.8109 10.585 39.0039 11.3756 39.0039 12.351V37.6267C39.0039 38.6021 39.8109 39.3928 40.8063 39.3928H43.8026C44.7981 39.3928 45.605 38.6021 45.605 37.6267V12.351C45.605 11.3756 44.7981 10.585 43.8026 10.585Z" fill="#0C8DDD"/>
<path d="M133.511 39.3928C136.502 39.3928 139.288 38.5181 141.614 37.0084V37.6267C141.614 38.6017 142.421 39.3928 143.416 39.3928H146.418C147.413 39.3928 148.22 38.6017 148.22 37.6267V24.9861C148.22 19.9666 145.599 15.5432 141.619 12.9638C139.294 11.4596 136.514 10.5794 133.517 10.5794C125.398 10.5794 118.814 17.0306 118.814 24.9861C118.814 32.9415 125.398 39.3928 133.517 39.3928H133.511ZM133.511 17.0529C137.986 17.0529 141.614 20.6072 141.614 24.9916C141.614 29.376 137.986 32.9304 133.511 32.9304C129.037 32.9304 125.409 29.376 125.409 24.9916C125.409 20.6072 129.037 17.0529 133.511 17.0529Z" fill="#0C8DDD"/>
<path d="M65.1069 39.3928C68.0976 39.3928 70.8836 38.5181 73.2091 37.0084V37.6267C73.2091 38.6017 74.0164 39.3928 75.0114 39.3928H78.0135C79.0085 39.3928 79.8158 38.6017 79.8158 37.6267V24.9861C79.8158 19.9666 77.1947 15.5432 73.2147 12.9638C70.8893 11.4596 68.109 10.5794 65.1126 10.5794C56.9935 10.5794 50.4094 17.0306 50.4094 24.9861C50.4094 32.9415 56.9935 39.3928 65.1126 39.3928H65.1069ZM65.1069 17.0529C69.5816 17.0529 73.2091 20.6072 73.2091 24.9916C73.2091 29.376 69.5816 32.9304 65.1069 32.9304C60.6323 32.9304 57.0048 29.376 57.0048 24.9916C57.0048 20.6072 60.6323 17.0529 65.1069 17.0529Z" fill="#0C8DDD"/>
<path d="M15.0102 37.8496L15.158 38.1003C16.153 39.7605 18.6433 39.7605 19.6383 38.1003L19.7861 37.8496L34.5462 13.2256C35.2512 12.0501 34.3699 10.5794 32.9599 10.5794H30.4923C29.1846 10.5794 27.9735 11.2535 27.3197 12.3454L17.3925 28.9025L7.47661 12.3454C6.82275 11.2535 5.6117 10.5794 4.30399 10.5794H1.8364C0.426345 10.5794 -0.454937 12.0501 0.250089 13.2256L15.0102 37.8496Z" fill="#0C8DDD"/>
<path d="M91.2099 37.6323V24.9916C91.2099 20.6072 94.8374 17.0529 99.312 17.0529C103.787 17.0529 107.414 20.6072 107.414 24.9916V37.6323C107.414 38.6072 108.222 39.3983 109.216 39.3983H112.219C113.214 39.3983 114.021 38.6072 114.021 37.6323V24.9916C114.021 19.9721 111.4 15.5487 107.42 12.9694C105.094 11.4652 102.314 10.585 99.3177 10.585C96.3213 10.585 93.541 11.4596 91.2156 12.9694C87.2356 15.5487 84.6145 19.9721 84.6145 24.9916V37.6323C84.6145 38.6072 85.4219 39.3983 86.4169 39.3983H89.4189C90.4139 39.3983 91.2213 38.6072 91.2213 37.6323H91.2099Z" fill="#0C8DDD"/>
<path d="M153.241 12.0056H153.252L154.19 13.6323H154.679L155.612 12.0056H155.623V14.3398H156.374V10.585H155.612L154.44 12.7187H154.429L153.252 10.585H152.49V14.3398H153.241V12.0056Z" fill="#0C8DDD"/>
<path d="M150.415 14.3398H151.171V11.2535H152.229V10.585H149.357V11.2535H150.415V14.3398Z" fill="#0C8DDD"/>
<path d="M241.017 60.2006L238.282 68.117C243.217 69.6824 246.793 74.2228 246.793 79.571C246.793 86.2117 241.278 91.61 234.506 91.61C227.735 91.61 222.22 86.2061 222.22 79.571C222.22 73.6769 226.569 68.7577 232.289 67.7326L233.989 78.2841C234.069 78.273 234.154 78.2618 234.239 78.2618L234.501 0L234.234 0.0278552V0C200.142 0.111421 170.997 20.7967 159.063 50.0557C159.29 50.1226 159.518 50.1894 159.745 50.2618C161.133 50.7075 162.486 51.2646 163.799 51.9164C164.027 51.3649 164.26 50.8134 164.499 50.2618C168.268 41.6267 173.721 33.688 180.697 26.8468C192.159 15.6156 206.63 8.41783 222.328 5.95543L227.041 35.1978C216.295 36.9192 206.806 42.3008 199.943 49.9944C200.244 50.078 200.534 50.1671 200.824 50.2618C202.348 50.7409 203.747 51.3203 205.026 52.0056C205.612 51.4095 206.209 50.8245 206.828 50.2618C212.56 45.0641 219.809 41.454 227.843 40.156L229.475 50.2618L230.959 59.4763C226.745 60.1838 222.965 62.1337 220.025 64.9304C216.125 68.6407 213.691 73.8273 213.691 79.571C213.691 90.8356 223.01 99.9666 234.506 99.9666C246.003 99.9666 255.322 90.8356 255.322 79.571C255.322 73.8217 252.894 68.6351 248.988 64.9304C246.753 62.8078 244.041 61.1755 241.017 60.2006Z" fill="#0C8DDD"/>
</mask>
<g mask="url(#mask0_1_1966)">
<rect x="-8" y="-8" width="323" height="113" fill="url(#paint0_linear_1_1966)"/>
</g>
</g>
<defs>
<linearGradient id="paint0_linear_1_1966" x1="143.5" y1="42" x2="241.5" y2="90.5" gradientUnits="userSpaceOnUse">
<stop stop-color="#0C8DDD"/>
<stop offset="1" stop-color="#1FC7FF"/>
</linearGradient>
<clipPath id="clip0_1_1966">
<rect width="350" height="114" fill="white"/>
</clipPath>
</defs>
</svg>
