<svg width="313" height="102" viewBox="0 0 313 102" fill="none" xmlns="http://www.w3.org/2000/svg">
<path d="M27.7875 53.9883C25.235 52.3882 22.347 51.5857 19.1233 51.5857C17.5115 51.5857 15.981 51.8549 14.5319 52.3982C13.0828 52.9415 11.8065 53.6294 10.7032 54.4618C9.70657 55.2145 8.90828 55.9672 8.28796 56.7198V56.3908C8.28796 55.2195 7.89644 54.2375 7.1134 53.4449C6.33037 52.6574 5.33887 52.2586 4.14398 52.2586C2.94909 52.2586 1.95758 52.6524 1.17455 53.4449C0.391517 54.2325 0 55.2145 0 56.3908V97.8727C0 99.089 0.391517 100.081 1.17455 100.849C1.95758 101.616 2.944 102 4.14398 102C5.34395 102 6.33037 101.606 7.1134 100.814C7.89644 100.026 8.28796 99.0441 8.28796 97.8678V84.5938C8.77608 85.0723 9.33539 85.5508 9.98114 86.0293C11.2015 86.9315 12.615 87.6792 14.2268 88.2624C15.8386 88.8456 17.5623 89.1397 19.403 89.1397C22.53 89.1397 25.352 88.3372 27.8587 86.7371C30.3654 85.1371 32.3688 82.9239 33.8637 80.1076C35.3585 77.2863 36.106 74.0264 36.106 70.3278C36.106 66.6292 35.3585 63.3793 33.8637 60.5829C32.3688 57.7865 30.3451 55.5883 27.7875 53.9833V53.9883ZM26.8926 76.1149C26.0384 77.8546 24.8689 79.2154 23.3741 80.2073C21.8792 81.1992 20.1199 81.6977 18.0911 81.6977C16.0624 81.6977 14.2929 81.1992 12.7777 80.2073C11.2574 79.2154 10.0727 77.8496 9.22353 76.1149C8.36931 74.3803 7.94728 72.4512 7.94728 70.3278C7.94728 68.2044 8.37439 66.2354 9.22353 64.5407C10.0727 62.8509 11.2574 61.5051 12.7777 60.5131C14.298 59.5212 16.0674 59.0227 18.0911 59.0227C20.1148 59.0227 21.8741 59.5212 23.3741 60.5131C24.8689 61.5051 26.0435 62.8459 26.8926 64.5407C27.7418 66.2305 28.1689 68.1595 28.1689 70.3278C28.1689 72.4961 27.7418 74.3753 26.8926 76.1149Z" fill="white"/>
<path d="M69.5172 56.8993C67.9053 55.2544 66.0545 53.9534 63.9596 53.0063C61.8648 52.0592 59.6428 51.5857 57.2988 51.5857C54.2632 51.5857 51.3853 52.3533 48.6701 53.8886C45.955 55.4238 43.7584 57.622 42.0754 60.4882C40.3974 63.3543 39.5534 66.8137 39.5534 70.8761C39.5534 74.3504 40.3212 77.4658 41.8669 80.2173C43.4075 82.9688 45.6194 85.147 48.4922 86.7471C51.3701 88.3472 54.7615 89.1497 58.6767 89.1497C60.975 89.1497 63.2071 88.7758 65.3732 88.0331C67.5341 87.2904 69.2172 86.4231 70.412 85.4262C71.6985 84.4342 72.3442 83.3277 72.3442 82.1114C72.3442 81.2092 72.0086 80.4216 71.3425 79.7437C70.6764 79.0658 69.8324 78.7269 68.8206 78.7269C68.0833 78.7269 67.3002 78.9312 66.4715 79.335C65.963 79.6042 65.4037 79.9331 64.7783 80.317C64.1579 80.7008 63.3393 81.0298 62.3275 81.2989C61.3156 81.5681 59.958 81.7027 58.2547 81.7027C56.414 81.7027 54.6751 81.264 53.0429 80.3818C51.4108 79.5045 50.0735 78.2184 49.0362 76.5237C48.4312 75.5367 48.0091 74.4152 47.7549 73.174H70.5392C71.6425 73.174 72.6086 72.8351 73.4374 72.1572C74.2662 71.4792 74.7035 70.602 74.7492 69.5203C74.7492 67.0828 74.2764 64.7849 73.3357 62.6166C72.39 60.4533 71.1137 58.5442 69.5019 56.8993H69.5172ZM65.9274 66.4049H47.8414C47.9532 65.8466 48.0905 65.3233 48.2583 64.8497C48.7617 63.4042 49.4532 62.2577 50.3277 61.4004C51.2023 60.543 52.2345 59.9349 53.4345 59.571C54.6293 59.2121 55.9208 59.0277 57.2988 59.0277C58.6767 59.0277 60.0699 59.3318 61.336 59.9399C62.602 60.548 63.6597 61.3705 64.5139 62.4123C65.363 63.449 65.8359 64.6254 65.9274 65.9314V66.4049Z" fill="white"/>
<path d="M102.618 52.7371C101.672 51.9695 100.513 51.5857 99.1301 51.5857C97.9809 51.5857 96.8267 51.7203 95.6776 51.9944C94.5285 52.2636 93.4454 52.6823 92.4336 53.2456C91.4218 53.8088 90.5116 54.5116 89.7082 55.3441C89.1388 55.9372 88.6456 56.5952 88.2235 57.308V56.3908C88.2235 55.2195 87.832 54.2375 87.049 53.4449C86.2659 52.6574 85.2744 52.2586 84.0796 52.2586C82.8847 52.2586 81.8931 52.6524 81.1101 53.4449C80.3271 54.2325 79.9356 55.2145 79.9356 56.3908V84.3395C79.9356 85.5109 80.3271 86.4929 81.1101 87.2854C81.8931 88.073 82.8796 88.4718 84.0796 88.4718C85.2795 88.4718 86.2659 88.078 87.049 87.2854C87.832 86.4979 88.2235 85.5159 88.2235 84.3395V68.2991C88.2235 66.6741 88.4422 65.2634 88.8794 64.0671C89.3167 62.8708 89.8913 61.8689 90.6031 61.0564C91.315 60.2439 92.098 59.6458 92.9522 59.262C93.8014 58.8782 94.6454 58.6888 95.4742 58.6888C96.3945 58.6888 97.2132 58.8483 97.925 59.1623C98.6369 59.4763 99.4301 59.6358 100.305 59.6358C101.225 59.6358 102.074 59.3068 102.857 58.6539C103.64 58.0009 104.032 56.9292 104.032 55.4388C104.032 54.402 103.559 53.4998 102.618 52.7321V52.7371Z" fill="white"/>
<path d="M114.455 53.4449C113.672 52.6574 112.681 52.2586 111.486 52.2586C110.291 52.2586 109.299 52.6524 108.516 53.4449C107.733 54.2325 107.342 55.2145 107.342 56.3908V84.3395C107.342 85.5109 107.733 86.4929 108.516 87.2854C109.299 88.073 110.286 88.4718 111.486 88.4718C112.294 88.4718 113.011 88.2874 113.631 87.9235C113.926 87.749 114.201 87.5446 114.455 87.2904C115.238 86.5029 115.63 85.5209 115.63 84.3445V56.3958C115.63 55.3939 115.34 54.5366 114.77 53.8138C114.674 53.6892 114.567 53.5696 114.455 53.4549V53.4449Z" fill="white"/>
<path d="M144.414 70.263C144.088 70.0437 143.753 69.8343 143.407 69.6399C143.178 69.5103 142.944 69.3807 142.71 69.2611C141.999 68.8972 141.256 68.5782 140.478 68.3041C139.05 67.8056 137.646 67.3819 136.268 67.018C134.931 66.6591 133.68 66.2853 132.506 65.9015C131.331 65.5177 130.401 65.0242 129.709 64.4111C129.018 63.798 128.672 62.9805 128.672 61.9387C128.672 60.8122 128.972 59.9897 129.572 59.4664C130.167 58.948 130.873 58.609 131.677 58.4495C132.48 58.29 133.228 58.2102 133.919 58.2102C135.622 58.2102 137.128 58.5043 138.439 59.0925C139.751 59.6807 140.799 60.4683 141.582 61.4602C142.182 62.0035 142.939 62.3076 143.86 62.3724C143.86 62.3724 143.86 62.3724 143.865 62.3724C143.971 62.3824 144.073 62.3824 144.175 62.3824C144.266 62.3824 144.358 62.3774 144.444 62.3724C145.126 62.3225 145.736 62.0883 146.275 61.6646C147.241 60.8969 147.678 60.0396 147.587 59.0925C147.495 58.1753 147.21 57.3878 146.732 56.7248C146.717 56.6999 146.702 56.675 146.687 56.655C145.904 55.6731 144.968 54.8506 143.885 54.1727C143.626 54.0132 143.371 53.8537 143.097 53.7091C142.919 53.6144 142.736 53.5347 142.553 53.4499C141.287 52.8418 139.975 52.3832 138.607 52.0842C137.041 51.7452 135.546 51.5757 134.123 51.5757C131.865 51.5757 129.714 52.0044 127.67 52.8618C127.157 53.0761 126.668 53.3154 126.206 53.5746C125.972 53.7042 125.748 53.8387 125.524 53.9783C124.421 54.6811 123.47 55.5285 122.662 56.5155C121.37 58.0956 120.73 60.0097 120.73 62.2677C120.73 64.2516 121.121 65.9015 121.904 67.2075C122.687 68.5184 123.699 69.5652 124.94 70.3527C126.18 71.1403 127.553 71.7833 129.048 72.2818C130.543 72.7802 132.002 73.2289 133.431 73.6326C134.809 73.9965 136.065 74.3753 137.194 74.784C138.322 75.1878 139.227 75.6863 139.919 76.2745C140.611 76.8626 140.956 77.6502 140.956 78.6421C140.956 78.7867 140.956 78.9312 140.941 79.0658C140.875 80.0279 140.57 80.7506 140.026 81.2441C139.405 81.8074 138.678 82.1712 137.85 82.3258C137.021 82.4853 136.263 82.585 135.572 82.6298C133.365 82.6298 131.519 82.2709 130.05 81.5482C129.465 81.2591 128.89 80.9151 128.326 80.5363C127.472 79.9631 126.643 79.2951 125.835 78.5026C125.052 77.7349 124.248 77.3162 123.419 77.2514C123.257 77.2365 123.094 77.2415 122.931 77.2514C122.855 77.2514 122.779 77.2614 122.702 77.2664C122.585 77.2763 122.469 77.2963 122.352 77.3212C122.28 77.3362 122.209 77.3461 122.138 77.3661C122.011 77.401 121.889 77.4409 121.767 77.4907C121.711 77.5106 121.65 77.5306 121.594 77.5555C121.416 77.6352 121.238 77.72 121.065 77.8296C119.916 78.5524 119.316 79.4098 119.27 80.4017C119.225 81.3936 119.433 82.2061 119.891 82.8392C121.686 85.1869 123.938 86.8219 126.653 87.744C129.368 88.6662 132.084 89.1297 134.799 89.1297C136.96 89.1297 139.08 88.711 141.149 87.8786C143.219 87.0462 144.948 85.815 146.326 84.19C146.422 84.0753 146.504 83.9607 146.595 83.8461C147.79 82.2909 148.395 80.4466 148.395 78.3032C148.395 76.3193 148.024 74.6844 147.292 73.3983C146.554 72.1123 145.588 71.0655 144.393 70.253L144.414 70.263Z" fill="white"/>
<path d="M182.172 80.2422C181.527 79.4995 180.606 79.1256 179.411 79.1256C178.4 79.1256 177.642 79.33 177.133 79.7338C176.625 80.1375 176.05 80.5213 175.41 80.8852C174.856 81.1544 174.169 81.3587 173.34 81.4933C172.512 81.6279 171.52 81.6977 170.371 81.6977C168.301 81.6977 166.471 81.1992 164.885 80.2073C163.298 79.2154 162.052 77.8745 161.158 76.1797C160.263 74.49 159.81 72.5609 159.81 70.3926C159.81 68.1844 160.247 66.2305 161.122 64.5407C161.996 62.8509 163.252 61.5051 164.885 60.5131C166.517 59.5212 168.51 59.0227 170.854 59.0227C171.312 59.0227 172.013 59.1025 172.959 59.257C173.9 59.4165 174.606 59.6308 175.064 59.9C175.572 60.1692 176.005 60.4633 176.376 60.7773C176.742 61.0913 177.169 61.3505 177.652 61.5549C178.135 61.7593 178.745 61.859 179.483 61.859C180.54 61.859 181.349 61.4652 181.898 60.6726C182.452 59.8851 182.727 59.0377 182.727 58.1355C182.727 58.1355 182.727 58.1006 182.727 58.0856C182.711 56.7547 182.172 55.6083 181.105 54.6512C180.698 54.2873 180.23 53.9534 179.701 53.6493C178.822 53.1459 177.769 52.7222 176.549 52.3832C174.591 51.8399 172.303 51.5707 169.679 51.5707C166.578 51.5707 163.786 52.1838 161.3 53.4101C160.944 53.5845 160.598 53.7739 160.252 53.9733C158.9 54.7609 157.7 55.703 156.642 56.7896C156.292 57.1535 155.951 57.5323 155.631 57.9261C154.964 58.7486 154.359 59.6358 153.831 60.6028C152.29 63.4241 151.517 66.6841 151.517 70.3826C151.517 74.0812 152.244 77.082 153.693 79.9232C155.142 82.7644 157.202 85.0125 159.871 86.6574C162.541 88.3023 165.693 89.1297 169.329 89.1297C171.769 89.1297 174.032 88.8456 176.127 88.2824C178.222 87.7191 179.91 86.9764 181.201 86.0493C182.488 85.1271 183.133 84.1003 183.133 82.9688C183.133 82.8342 183.133 82.6996 183.118 82.57C183.047 81.6578 182.732 80.8802 182.167 80.2272L182.172 80.2422Z" fill="white"/>
<path d="M271.662 59.8053C271.306 59.2072 270.92 58.6389 270.508 58.0956C269.257 56.4507 267.772 55.0749 266.033 53.9833C265.713 53.7839 265.387 53.5945 265.062 53.42C262.754 52.1938 260.191 51.5807 257.374 51.5807C255.762 51.5807 254.232 51.8499 252.783 52.3932C251.878 52.7321 251.044 53.1359 250.276 53.5895C249.813 53.8637 249.366 54.1478 248.954 54.4618C248.445 54.8456 247.988 55.2344 247.576 55.6182C247.184 55.9871 246.839 56.351 246.539 56.7198V56.3908C246.539 55.2195 246.147 54.2375 245.364 53.4449C245.268 53.3453 245.166 53.2555 245.059 53.1658C244.952 53.0811 244.846 53.0013 244.739 52.9266C244.073 52.4829 243.295 52.2586 242.395 52.2586C241.495 52.2586 240.717 52.4829 240.051 52.9266C239.939 53.0013 239.832 53.0811 239.73 53.1658C239.624 53.2505 239.527 53.3453 239.425 53.4449C238.642 54.2325 238.251 55.2145 238.251 56.3908V97.8727C238.251 99.089 238.642 100.081 239.425 100.849C240.208 101.616 241.195 102 242.395 102C243.595 102 244.581 101.606 245.364 100.814C246.147 100.026 246.539 99.0441 246.539 97.8678V84.5938C247.027 85.0723 247.586 85.5508 248.232 86.0293C249.452 86.9315 250.866 87.6792 252.478 88.2624C254.089 88.8456 255.813 89.1397 257.654 89.1397C260.781 89.1397 263.603 88.3372 266.109 86.7371C268.616 85.1371 270.62 82.9239 272.114 80.1076C273.609 77.2863 274.357 74.0264 274.357 70.3278C274.357 66.6292 273.609 63.3793 272.114 60.5829C271.972 60.3137 271.82 60.0595 271.667 59.8053H271.662ZM266.415 70.3278C266.415 72.4512 265.987 74.3753 265.138 76.1149C264.284 77.8546 263.115 79.2154 261.62 80.2073C260.125 81.1992 258.366 81.6977 256.337 81.6977C254.308 81.6977 252.539 81.1992 251.023 80.2073C249.503 79.2154 248.318 77.8496 247.469 76.1149C246.615 74.3803 246.193 72.4512 246.193 70.3278C246.193 68.1645 246.62 66.2354 247.469 64.5407C248.318 62.8509 249.503 61.5051 251.023 60.5131C252.544 59.5212 254.313 59.0227 256.337 59.0227C258.361 59.0227 260.12 59.5212 261.62 60.5131C263.115 61.5051 264.289 62.8459 265.138 64.5407C265.987 66.2305 266.415 68.1595 266.415 70.3278Z" fill="white"/>
<path d="M311.592 62.6166C310.646 60.4533 309.37 58.5442 307.758 56.8993C307.153 56.2812 306.517 55.7129 305.846 55.1945C305.175 54.6761 304.468 54.2076 303.731 53.7839C303.238 53.5048 302.729 53.2456 302.205 53.0063C300.11 52.0592 297.888 51.5857 295.544 51.5857C293.2 51.5857 291.08 52.0193 288.98 52.8817C288.629 53.0262 288.284 53.1808 287.938 53.3502C287.592 53.5197 287.251 53.6992 286.911 53.8886C285.009 54.9653 283.367 56.3709 281.974 58.1006C281.516 58.6688 281.084 59.272 280.682 59.91C280.56 60.0994 280.438 60.2888 280.321 60.4832C278.643 63.3494 277.799 66.8087 277.799 70.8711C277.799 74.3454 278.567 77.4608 280.113 80.2123C280.265 80.4814 280.423 80.7407 280.591 80.9949C282.101 83.3775 284.145 85.2966 286.743 86.7421C289.621 88.3422 293.012 89.1447 296.927 89.1447C299.226 89.1447 301.458 88.7709 303.624 88.0281C305.785 87.2854 307.468 86.4181 308.663 85.4212C309.949 84.4293 310.595 83.3227 310.595 82.1064C310.595 81.2042 310.259 80.4167 309.593 79.7387C308.927 79.0608 308.083 78.7219 307.071 78.7219C306.817 78.7219 306.553 78.7568 306.283 78.8066C306.034 78.8515 305.78 78.9163 305.515 79.006C305.256 79.0907 304.992 79.2004 304.722 79.335C304.214 79.6042 303.654 79.9331 303.029 80.317C302.409 80.7008 301.59 81.0298 300.578 81.2989C299.566 81.5681 298.209 81.7027 296.505 81.7027C294.665 81.7027 292.926 81.264 291.294 80.3818C289.662 79.5045 288.324 78.2184 287.287 76.5237C286.682 75.5367 286.26 74.4152 286.006 73.174H308.79C309.893 73.174 310.859 72.8351 311.688 72.1572C312.517 71.4792 312.954 70.602 313 69.5203C313 67.0828 312.527 64.7849 311.586 62.6166H311.592ZM304.173 66.4049H286.087C286.199 65.8466 286.336 65.3233 286.504 64.8497C287.007 63.4042 287.699 62.2577 288.573 61.4004C289.448 60.543 290.48 59.9349 291.68 59.571C292.875 59.2121 294.166 59.0277 295.544 59.0277C296.922 59.0277 298.316 59.3318 299.582 59.9399C300.848 60.548 301.905 61.3705 302.76 62.4123C303.609 63.449 304.082 64.6254 304.173 65.9314V66.4049Z" fill="white"/>
<path d="M222.733 33.038L221.263 37.2948C226.226 38.9248 230.71 41.5666 234.468 44.9761C234.895 45.3649 235.317 45.7637 235.729 46.1774C236.512 45.6839 237.351 45.2802 238.23 44.9761C238.917 44.7368 239.634 44.5624 240.366 44.4477C235.658 39.2637 229.597 35.291 222.733 33.043V33.038Z" fill="#0C8DDD"/>
<path d="M276.238 42.5885C276.162 42.424 276.091 42.2595 276.014 42.095C276.014 42.085 276.004 42.0751 275.999 42.0651C275.77 41.5666 275.531 41.0731 275.292 40.5797C275.231 40.4551 275.175 40.3255 275.109 40.2008C275.058 40.0962 275.008 39.9915 274.957 39.8918C274.86 39.6974 274.753 39.513 274.657 39.3186C274.382 38.7752 274.102 38.2369 273.813 37.7036C273.767 37.6238 273.721 37.5391 273.675 37.4593C273.65 37.4145 273.625 37.3696 273.599 37.3197C273.279 36.7415 272.953 36.1633 272.618 35.5951C272.526 35.4405 272.435 35.286 272.343 35.1315C272.114 34.7527 271.875 34.3788 271.642 34.005C271.58 33.9053 271.519 33.8006 271.453 33.7009C271.367 33.5614 271.281 33.4218 271.194 33.2822C271.153 33.2174 271.108 33.1476 271.067 33.0828C270.818 32.699 270.558 32.3302 270.304 31.9513C270.101 31.6473 269.903 31.3432 269.694 31.0441C269.623 30.9394 269.547 30.8398 269.47 30.7351C269.074 30.1768 268.672 29.6235 268.26 29.0752C268.153 28.9307 268.042 28.7861 267.935 28.6415C267.472 28.0334 266.999 27.4303 266.516 26.8371C266.496 26.8122 266.476 26.7873 266.46 26.7623C266.14 26.3686 265.804 25.9847 265.479 25.6009C265.276 25.3667 265.082 25.1224 264.879 24.8931C264.777 24.7785 264.676 24.6638 264.574 24.5492C264.132 24.0507 263.684 23.5622 263.232 23.0787C263.11 22.9491 262.987 22.8195 262.865 22.6899C262.509 22.3111 262.138 21.9472 261.772 21.5784C261.615 21.4188 261.457 21.2544 261.299 21.0948C260.694 20.4967 260.074 19.9035 259.449 19.3253C259.438 19.3153 259.433 19.3104 259.423 19.3004C259.296 19.1808 259.164 19.0661 259.032 18.9465C258.971 18.8917 258.915 18.8418 258.854 18.792C258.477 18.453 258.096 18.1141 257.71 17.7801C257.659 17.7402 257.613 17.6953 257.567 17.6505C257.43 17.5358 257.298 17.4162 257.16 17.3016C257.13 17.2766 257.094 17.2467 257.064 17.2218C256.51 16.7582 255.955 16.2997 255.386 15.851C255.284 15.7713 255.183 15.6915 255.081 15.6118C254.583 15.223 254.084 14.8392 253.576 14.4603C253.505 14.4105 253.439 14.3557 253.372 14.3058C253.286 14.241 253.2 14.1812 253.113 14.1164C252.508 13.6728 251.893 13.2391 251.272 12.8154C251.14 12.7257 251.013 12.636 250.881 12.5462C250.795 12.4914 250.708 12.4366 250.627 12.3768C250.159 12.0627 249.681 11.7537 249.203 11.4496C249.081 11.3699 248.959 11.2901 248.837 11.2104C248.786 11.1805 248.735 11.1456 248.679 11.1157C248.049 10.7219 247.413 10.3431 246.773 9.96921C246.595 9.86453 246.417 9.76484 246.239 9.66515C245.664 9.33616 245.09 9.01715 244.505 8.7081C244.368 8.63333 244.23 8.55857 244.088 8.4838C243.747 8.30435 243.401 8.13487 243.061 7.9654C242.674 7.771 242.293 7.56663 241.907 7.3822C241.805 7.33235 241.698 7.28251 241.591 7.23266C240.966 6.93358 240.33 6.63949 239.695 6.35537C239.502 6.27063 239.308 6.18589 239.115 6.10115C238.79 5.96158 238.459 5.827 238.129 5.68743C237.824 5.56282 237.524 5.42823 237.219 5.3086C237.097 5.25876 236.974 5.20891 236.852 5.15906C236.563 5.04442 236.268 4.93974 235.978 4.83008C235.729 4.73537 235.475 4.64066 235.225 4.54596C234.997 4.46122 234.773 4.3715 234.544 4.29174C234.402 4.2419 234.254 4.19205 234.107 4.1422C233.964 4.09236 233.827 4.0475 233.685 4.00264C233.42 3.91291 233.161 3.82817 232.897 3.73845L231.437 7.96041C232.093 8.17475 232.744 8.40404 233.39 8.63832C233.456 8.66324 233.522 8.68816 233.588 8.71309C233.588 8.71309 233.593 8.71309 233.598 8.71309C234.275 8.96232 234.951 9.22152 235.617 9.49069C235.886 9.60035 236.151 9.71001 236.415 9.82465C236.908 10.029 237.402 10.2434 237.89 10.4577C238.073 10.5375 238.256 10.6172 238.434 10.697C239.151 11.0259 239.863 11.3649 240.569 11.7188C240.707 11.7886 240.844 11.8634 240.986 11.9331H240.991C241.561 12.2272 242.125 12.5213 242.685 12.8254C242.888 12.935 243.091 13.0497 243.295 13.1594C243.427 13.2341 243.554 13.3089 243.681 13.3837C244.388 13.7824 245.09 14.1962 245.781 14.6198C245.796 14.6298 245.812 14.6398 245.827 14.6498C246.508 15.0685 247.184 15.5021 247.856 15.9458C248.201 16.175 248.542 16.4143 248.883 16.6486C249.579 17.1321 250.266 17.6256 250.947 18.134C250.947 18.134 250.952 18.134 250.957 18.139C251.639 18.6474 252.31 19.1708 252.971 19.7091C253.22 19.9085 253.469 20.1029 253.713 20.3073C253.886 20.4469 254.054 20.5964 254.222 20.7409C254.679 21.1297 255.132 21.5285 255.584 21.9273C255.833 22.1466 256.077 22.3759 256.322 22.6002C256.835 23.0737 257.349 23.5473 257.847 24.0408L257.857 24.0507C264.101 30.1718 268.977 37.2749 272.343 45.001C272.557 45.4945 272.765 45.988 272.969 46.4814C274.138 45.8983 275.348 45.3998 276.594 45.001C276.797 44.9362 277.001 44.8764 277.204 44.8166C276.93 44.1387 276.635 43.4707 276.34 42.8028C276.314 42.743 276.289 42.6782 276.258 42.6184L276.238 42.5885Z" fill="#0C8DDD"/>
<path d="M215.543 53.8637L213.097 60.9468C217.511 62.3475 220.709 66.4099 220.709 71.1951C220.709 77.1368 215.777 81.9669 209.721 81.9669C203.665 81.9669 198.733 77.1318 198.733 71.1951C198.733 65.9214 202.623 61.52 207.738 60.6028L209.258 70.0437C209.329 70.0337 209.406 70.0238 209.482 70.0238L209.716 0L209.477 0.024923V0C178.989 0.0996921 152.926 18.6075 142.253 44.7867C142.456 44.8465 142.66 44.9063 142.863 44.9711C144.104 45.3699 145.314 45.8683 146.488 46.4515C146.692 45.9581 146.9 45.4646 147.114 44.9711C150.485 37.245 155.361 30.1419 161.6 24.0208C171.85 13.9719 184.791 7.53174 198.83 5.32854L203.045 31.4927C193.435 33.033 184.949 37.8481 178.811 44.7319C179.081 44.8066 179.34 44.8864 179.599 44.9711C180.962 45.3998 182.213 45.9182 183.357 46.5313C183.881 45.998 184.415 45.4746 184.969 44.9711C190.094 40.3205 196.577 37.0905 203.762 35.929L206.548 53.2157C202.78 53.8487 199.399 55.5933 196.77 58.0956C193.282 61.4153 191.106 66.056 191.106 71.1951C191.106 81.274 199.44 89.4438 209.721 89.4438C220.002 89.4438 228.336 81.274 228.336 71.1951C228.336 66.051 226.165 61.4104 222.671 58.0956C220.673 56.1965 218.248 54.736 215.543 53.8637Z" fill="#0C8DDD"/>
</svg>
